<?xml version="1.0" encoding="UTF-8"?>
<!DOCTYPE svg PUBLIC "-//W3C//DTD SVG 1.1//EN" "http://www.w3.org/Graphics/SVG/1.1/DTD/svg11.dtd">
<!-- Creator: CorelDRAW 2020 (64-Bit) -->
<svg xmlns="http://www.w3.org/2000/svg" xml:space="preserve" width="0.444445in" height="0.444449in" version="1.1" style="shape-rendering:geometricPrecision; text-rendering:geometricPrecision; image-rendering:optimizeQuality; fill-rule:evenodd; clip-rule:evenodd"
viewBox="0 0 111.7 111.7"
 xmlns:xlink="http://www.w3.org/1999/xlink"
 xmlns:xodm="http://www.corel.com/coreldraw/odm/2003">
 <defs>
  <style type="text/css">
   <![CDATA[
    .fil0 {fill:white;fill-rule:nonzero}
   ]]>
  </style>
 </defs>
 <g id="Capa_x0020_1">
  <metadata id="CorelCorpID_0Corel-Layer"/>
  <path class="fil0" d="M55.85 111.7c-30.79,0 -55.85,-25.05 -55.85,-55.85 0,-30.79 25.05,-55.85 55.85,-55.85 30.79,0 55.85,25.06 55.85,55.85 0,30.79 -25.05,55.85 -55.85,55.85zm-8.76 -55.58l0 32.37c0,0.47 0.38,0.84 0.84,0.84l12.02 0c0.47,0 0.84,-0.38 0.84,-0.84l0 -32.9 8.71 0c0.44,0 0.8,-0.34 0.84,-0.77l0.84 -9.91c0.04,-0.49 -0.35,-0.91 -0.84,-0.91l-9.55 0 0 -7.03c0,-1.65 1.34,-2.99 2.99,-2.99l6.71 0c0.47,0 0.84,-0.38 0.84,-0.84l0 -9.91c0,-0.47 -0.38,-0.84 -0.84,-0.84l-11.35 0c-6.66,0 -12.06,5.4 -12.06,12.06l0 9.56 -6.01 0c-0.47,0 -0.84,0.38 -0.84,0.84l0 9.91c0,0.47 0.38,0.84 0.84,0.84l6.01 0 0 0.53z"/>
 </g>
</svg>
