<?xml version="1.0" encoding="UTF-8"?>
<!DOCTYPE svg PUBLIC "-//W3C//DTD SVG 1.1//EN" "http://www.w3.org/Graphics/SVG/1.1/DTD/svg11.dtd">
<!-- Creator: CorelDRAW 2020 (64-Bit) -->
<svg xmlns="http://www.w3.org/2000/svg" xml:space="preserve" width="0.444449in" height="0.444449in" version="1.1" style="shape-rendering:geometricPrecision; text-rendering:geometricPrecision; image-rendering:optimizeQuality; fill-rule:evenodd; clip-rule:evenodd"
viewBox="0 0 174.98 174.98"
 xmlns:xlink="http://www.w3.org/1999/xlink"
 xmlns:xodm="http://www.corel.com/coreldraw/odm/2003">
 <defs>
  <style type="text/css">
   <![CDATA[
    .fil0 {fill:white;fill-rule:nonzero}
   ]]>
  </style>
 </defs>
 <g id="Capa_x0020_1">
  <metadata id="CorelCorpID_0Corel-Layer"/>
  <path class="fil0" d="M132.69 108.67c0,12.58 -10.2,22.78 -22.78,22.78l-43.78 0c-12.58,0 -22.78,-10.2 -22.78,-22.78l0 -43.78c0,-12.58 10.2,-22.78 22.78,-22.78l43.78 0c12.58,0 22.78,10.2 22.78,22.78l0 43.78zm10.39 -43.78c0,-18.32 -14.85,-33.17 -33.17,-33.17l-43.78 0c-18.32,0 -33.17,14.85 -33.17,33.17l0 43.78c0,18.32 14.85,33.17 33.17,33.17l43.78 0c18.32,0 33.17,-14.85 33.17,-33.17l0 -43.78zm-54.87 40.02c-9.61,0 -17.42,-7.82 -17.42,-17.42 0,-9.61 7.81,-17.42 17.42,-17.42 9.61,0 17.42,7.82 17.42,17.42 0,9.61 -7.81,17.42 -17.42,17.42zm0 -44.62c-14.99,0 -27.19,12.2 -27.19,27.2 0,14.99 12.2,27.19 27.19,27.19 14.99,0 27.2,-12.2 27.2,-27.19 0,-15 -12.2,-27.2 -27.2,-27.2zm28.78 -8.3c-3.57,0 -6.47,2.9 -6.47,6.47 0,3.57 2.9,6.47 6.47,6.47 3.57,0 6.47,-2.9 6.47,-6.47 0,-3.58 -2.9,-6.47 -6.47,-6.47zm-29.5 122.99c-48.24,0 -87.49,-39.25 -87.49,-87.49 0,-48.24 39.25,-87.49 87.49,-87.49 48.24,0 87.49,39.25 87.49,87.49 0,48.24 -39.25,87.49 -87.49,87.49z"/>
 </g>
</svg>
