<svg xmlns="http://www.w3.org/2000/svg" viewBox="0 0 32 32"><defs><style>.cls-1{fill:#fff;}.cls-2{fill:#333033;}</style></defs><title>Recurso 2</title><g id="Capa_2" data-name="Capa 2"><g id="Design"><circle class="cls-1" cx="15.99" cy="15.86" r="14.01"/><path class="cls-2" d="M16,32A16,16,0,1,1,32,16,16,16,0,0,1,16,32ZM21.4,9.51a1.19,1.19,0,1,0,1.18,1.18A1.18,1.18,0,0,0,21.4,9.51ZM16.13,11a5,5,0,1,0,5,5A5,5,0,0,0,16.13,11Zm0,8.16A3.19,3.19,0,1,1,19.32,16,3.18,3.18,0,0,1,16.13,19.19Zm10-7.32A6.07,6.07,0,0,0,20.1,5.8h-8A6.06,6.06,0,0,0,6,11.87v8a6.06,6.06,0,0,0,6.06,6.07h8a6.07,6.07,0,0,0,6.07-6.07Zm-1.9,8A4.17,4.17,0,0,1,20.1,24h-8a4.17,4.17,0,0,1-4.16-4.17v-8A4.17,4.17,0,0,1,12.09,7.7h8a4.17,4.17,0,0,1,4.17,4.17Z"/></g></g></svg>