<svg xmlns="http://www.w3.org/2000/svg" viewBox="0 0 32 32"><defs><style>.cls-1{fill:#333033;}.cls-2{fill:#fff;fill-rule:evenodd;}</style></defs><title>Recurso 4</title><g id="Capa_2" data-name="Capa 2"><g id="Design"><path class="cls-1" d="M16,32A16,16,0,1,1,32,16,16,16,0,0,1,16,32Z"/><path class="cls-2" d="M13.49,16.08v9.27a.24.24,0,0,0,.24.24h3.45a.24.24,0,0,0,.24-.24V15.92h2.49a.23.23,0,0,0,.24-.22l.25-2.84a.24.24,0,0,0-.25-.26H17.42v-2a.86.86,0,0,1,.85-.86H20.2a.24.24,0,0,0,.24-.24V6.65a.24.24,0,0,0-.24-.24H17a3.46,3.46,0,0,0-3.46,3.45V12.6H11.77a.24.24,0,0,0-.24.24v2.84a.24.24,0,0,0,.24.24h1.72Z"/></g></g></svg>