<svg xmlns="http://www.w3.org/2000/svg" viewBox="0 0 32 32"><defs><style>.cls-1{fill:#333033;}.cls-2{fill:#fff;fill-rule:evenodd;}</style></defs><title>Recurso 1</title><g id="Capa_2" data-name="Capa 2"><g id="Design"><path class="cls-1" d="M16,32A16,16,0,1,1,32,16,16,16,0,0,1,16,32Z"/><path class="cls-2" d="M16.76,5.58a9.67,9.67,0,0,0-8.12,14.9L7.17,23.71a.85.85,0,0,0,.77,1.2.57.57,0,0,0,.22,0l4.05-1.1A9.66,9.66,0,1,0,16.76,5.58Zm0,17.64a8,8,0,0,1-4-1.09.87.87,0,0,0-.65-.08l-2.64.72.92-2a.86.86,0,0,0-.08-.85,7.86,7.86,0,0,1-1.51-4.66,8,8,0,1,1,8,8Z"/><path class="cls-2" d="M20.47,16.69a1.68,1.68,0,0,0-1.41-.32c-.36.15-.6.73-.83,1a.37.37,0,0,1-.46.1,6.43,6.43,0,0,1-3.18-2.73.39.39,0,0,1,.05-.53,2.15,2.15,0,0,0,.58-.94A2.07,2.07,0,0,0,15,12.18a2.71,2.71,0,0,0-.82-1.24,1.13,1.13,0,0,0-1.22.19,2.44,2.44,0,0,0-.86,2,2.57,2.57,0,0,0,.08.62,5.12,5.12,0,0,0,.6,1.38,11,11,0,0,0,.62.95,9.79,9.79,0,0,0,2.7,2.51,8.71,8.71,0,0,0,1.69.8,3.78,3.78,0,0,0,2,.31,2.34,2.34,0,0,0,1.78-1.33,1.11,1.11,0,0,0,.09-.67C21.48,17.19,20.85,16.92,20.47,16.69Z"/></g></g></svg>